<svg width="235" height="235" viewBox="0 0 235 235" fill="none" xmlns="http://www.w3.org/2000/svg">
<path fill-rule="evenodd" clip-rule="evenodd" d="M26.4208 15.0737C26.4208 11.7348 25.0944 8.53264 22.7334 6.17169C20.3725 3.81074 17.1704 2.48438 13.8315 2.48438C10.4926 2.48437 7.29045 3.81074 4.9295 6.17169C2.56855 8.53264 1.24219 11.7348 1.24219 15.0737V219.927C1.24219 226.876 6.88219 232.516 13.8315 232.516H218.684C222.023 232.516 225.225 231.189 227.586 228.828C229.947 226.468 231.274 223.265 231.274 219.927C231.274 216.588 229.947 213.386 227.586 211.025C225.225 208.664 222.023 207.337 218.684 207.337H26.404L26.4208 15.0737ZM171.567 40.8062C169.735 39.5 167.66 38.5753 165.464 38.0871C163.268 37.5989 160.996 37.5571 158.783 37.9643C156.571 38.3714 154.463 39.2191 152.584 40.457C150.706 41.695 149.095 43.2978 147.849 45.1704L96.1822 122.653L71.2722 97.7433C69.7126 96.1826 67.8609 94.9444 65.8228 94.0994C63.7848 93.2543 61.6002 92.819 59.3938 92.8182C57.1875 92.8174 55.0026 93.2512 52.9639 94.0948C50.9252 94.9384 49.0727 96.1753 47.512 97.7349C45.9513 99.2945 44.7131 101.146 43.8681 103.184C43.023 105.222 42.5877 107.407 42.5869 109.613C42.5861 111.82 43.0199 114.004 43.8636 116.043C44.7072 118.082 45.9441 119.934 47.5036 121.495L86.8997 160.874C88.6554 162.633 90.7798 163.981 93.1194 164.819C95.4591 165.657 97.9557 165.965 100.429 165.721C102.902 165.477 105.29 164.686 107.421 163.407C109.552 162.128 111.372 160.391 112.75 158.323L166.145 78.2047L207.203 107.529C210.827 110.116 215.33 111.157 219.721 110.423C224.112 109.69 228.032 107.242 230.619 103.618C233.206 99.9945 234.247 95.4916 233.513 91.1003C232.78 86.7089 230.332 82.7888 226.708 80.2022L171.567 40.8062Z" fill="#9747FF"/>
</svg>
