<svg width="324" height="288" viewBox="0 0 324 288" fill="none" xmlns="http://www.w3.org/2000/svg">
<g clip-path="url(#clip0_70_5)">
<path d="M117 0C100.181 0 86.2312 11.5312 82.2375 27.1125C81.7875 27.1125 81.45 27 81 27C61.1438 27 45 43.1438 45 63C45 65.7 45.3375 68.3438 45.9562 70.875C29.5312 77.625 18 93.7125 18 112.5C18 119.588 19.8 126.169 22.6687 132.131C9.16875 139.894 0 154.294 0 171C0 189.731 11.475 205.819 27.7875 212.569C27.2813 215.156 27 217.8 27 220.5C27 242.887 45.1125 261 67.5 261C69.8062 261 72.0562 260.719 74.25 260.325C79.65 276.356 94.6125 288 112.5 288C134.887 288 153 269.887 153 247.5V36C153 16.1438 136.856 0 117 0ZM324 171C324 154.294 314.831 139.894 301.331 132.131C304.256 126.169 306 119.588 306 112.5C306 93.7125 294.469 77.625 278.044 70.875C278.606 68.3438 279 65.7 279 63C279 43.1438 262.856 27 243 27C242.55 27 242.156 27.1125 241.762 27.1125C237.769 11.5312 223.819 0 207 0C187.144 0 171 16.0875 171 36V247.5C171 269.887 189.113 288 211.5 288C229.387 288 244.35 276.356 249.75 260.325C251.944 260.719 254.194 261 256.5 261C278.887 261 297 242.887 297 220.5C297 217.8 296.719 215.156 296.212 212.569C312.525 205.819 324 189.731 324 171Z" fill="#9747FF"/>
</g>
<defs>
<clipPath id="clip0_70_5">
<rect width="324" height="288" fill="white"/>
</clipPath>
</defs>
</svg>
