<svg width="64" height="64" viewBox="0 0 64 64" fill="none" xmlns="http://www.w3.org/2000/svg">
<g clip-path="url(#clip0_70_13)">
<path d="M48.2229 13.3783C57.4091 16.0663 64 23.416 64 32.0594C64 37.9429 60.944 43.2309 56.0949 46.8537L55.672 47.1543L55.0011 47.6183L54.9326 47.664C53.2297 48.9211 54.2834 51.5657 55.8606 53.6811L56.1531 54.0583C56.2522 54.1825 56.3524 54.304 56.4537 54.4229L56.76 54.7703L57.0309 55.0629L57.2343 55.2971C57.8457 56.0343 57.7863 56.3509 57.0583 56.2743L56.8206 56.24C56.675 56.214 56.5305 56.1824 56.3874 56.1451C54.8306 55.7594 53.3186 55.2109 51.8766 54.5086L51.3371 54.2354C51.1634 54.144 50.9947 54.0533 50.8309 53.9634L50.3566 53.6949L49.9086 53.4297L48.1646 52.3589L47.8206 52.16L47.4857 51.9806C46.6034 51.528 45.7943 51.3029 44.8206 51.4891L44.6274 51.5303C42.4773 51.8494 40.2974 51.918 38.1314 51.7349C48.2137 47.8263 55.2103 39.2674 55.2103 29.3383C55.2103 23.3474 52.664 17.856 48.4286 13.584L48.2229 13.3783ZM25.8297 8C40.0949 8 51.6606 17.7051 51.6606 29.6731C51.6606 41.6446 40.0949 51.3486 25.8297 51.3486C24.5383 51.347 23.2728 51.2697 22.0331 51.1166L21.2846 51.0137C20.2503 50.768 19.3931 50.9337 18.4926 51.3451L18.152 51.5086L17.8046 51.6949L17.448 51.8983L16.4994 52.4777L15.8766 52.8617L15.2046 53.2663L14.7246 53.5429L14.216 53.824L13.9497 53.9646L13.3931 54.2469C11.6896 55.0798 9.89721 55.7174 8.05029 56.1474L7.77371 56.1977C6.83543 56.3383 6.72457 55.9954 7.44686 55.1314L7.664 54.8834L7.78857 54.7497C7.89143 54.64 7.99429 54.528 8.09714 54.4137L8.4 54.0617L8.69943 53.6949L8.98857 53.3154L9.26857 52.9257L9.53371 52.528C9.57714 52.4617 9.61943 52.3947 9.66057 52.3269L9.90171 51.9211C11.0229 49.9497 11.4606 47.8777 9.96572 46.7783L8.87657 46.024L8.68914 45.8891C3.36 41.92 0 36.1223 0 29.6731C0 17.7051 11.5623 8 25.8297 8Z" fill="#9747FF"/>
</g>
<defs>
<clipPath id="clip0_70_13">
<rect width="64" height="64" fill="white"/>
</clipPath>
</defs>
</svg>
